<svg width="254" height="56" viewBox="0 0 254 56" fill="none" xmlns="http://www.w3.org/2000/svg">
<g clip-path="url(#clip0_5086_749)">
<circle cx="28" cy="28" r="28" fill="#1A236E"/>
<g clip-path="url(#clip1_5086_749)">
<path d="M39.9981 27.9991C39.9981 21.3722 34.626 16 27.9991 16C21.3722 16 16 21.3722 16 27.9991C16 33.9882 20.3879 38.9522 26.1242 39.8524V31.4676H23.0776V27.9991H26.1242V25.3555C26.1242 22.3483 27.9156 20.6871 30.6564 20.6871C31.9692 20.6871 33.3424 20.9215 33.3424 20.9215V23.8744H31.8294C30.3388 23.8744 29.8739 24.7993 29.8739 25.7482V27.9991H33.2018L32.6698 31.4676H29.8739V39.8524C35.6103 38.9522 39.9981 33.9882 39.9981 27.9991Z" fill="#FCDF00"/>
</g>
<circle cx="94" cy="28" r="28" fill="#1A236E"/>
<g clip-path="url(#clip2_5086_749)">
<path d="M94 16C90.74 16 90.333 16.015 89.053 16.072C87.775 16.132 86.905 16.333 86.14 16.63C85.351 16.936 84.681 17.347 84.014 18.014C83.347 18.681 82.935 19.35 82.63 20.14C82.333 20.905 82.131 21.775 82.072 23.053C82.012 24.333 82 24.74 82 28C82 31.26 82.015 31.667 82.072 32.947C82.132 34.224 82.333 35.095 82.63 35.86C82.936 36.648 83.347 37.319 84.014 37.986C84.681 38.652 85.35 39.065 86.14 39.37C86.906 39.666 87.776 39.869 89.053 39.928C90.333 39.988 90.74 40 94 40C97.26 40 97.667 39.985 98.947 39.928C100.224 39.868 101.095 39.666 101.86 39.37C102.648 39.064 103.319 38.652 103.986 37.986C104.652 37.319 105.065 36.651 105.37 35.86C105.666 35.095 105.869 34.224 105.928 32.947C105.988 31.667 106 31.26 106 28C106 24.74 105.985 24.333 105.928 23.053C105.868 21.776 105.666 20.904 105.37 20.14C105.064 19.351 104.652 18.681 103.986 18.014C103.319 17.347 102.651 16.935 101.86 16.63C101.095 16.333 100.224 16.131 98.947 16.072C97.667 16.012 97.26 16 94 16ZM94 18.16C97.203 18.16 97.585 18.176 98.85 18.231C100.02 18.286 100.655 18.48 101.077 18.646C101.639 18.863 102.037 19.123 102.459 19.542C102.878 19.962 103.138 20.361 103.355 20.923C103.519 21.345 103.715 21.98 103.768 23.15C103.825 24.416 103.838 24.796 103.838 28C103.838 31.204 103.823 31.585 103.764 32.85C103.703 34.02 103.508 34.655 103.343 35.077C103.119 35.639 102.864 36.037 102.444 36.459C102.025 36.878 101.62 37.138 101.064 37.355C100.644 37.519 99.999 37.715 98.829 37.768C97.555 37.825 97.18 37.838 93.97 37.838C90.759 37.838 90.384 37.823 89.111 37.764C87.94 37.703 87.295 37.508 86.875 37.343C86.306 37.119 85.915 36.864 85.496 36.444C85.075 36.025 84.806 35.62 84.596 35.064C84.431 34.644 84.237 33.999 84.176 32.829C84.131 31.569 84.115 31.18 84.115 27.985C84.115 24.789 84.131 24.399 84.176 23.124C84.237 21.954 84.431 21.31 84.596 20.89C84.806 20.32 85.075 19.93 85.496 19.509C85.915 19.09 86.306 18.82 86.875 18.611C87.295 18.445 87.926 18.25 89.096 18.19C90.371 18.145 90.746 18.13 93.955 18.13L94 18.16ZM94 21.838C90.595 21.838 87.838 24.598 87.838 28C87.838 31.405 90.598 34.162 94 34.162C97.405 34.162 100.162 31.402 100.162 28C100.162 24.595 97.402 21.838 94 21.838ZM94 32C91.79 32 90 30.21 90 28C90 25.79 91.79 24 94 24C96.21 24 98 25.79 98 28C98 30.21 96.21 32 94 32ZM101.846 21.595C101.846 22.39 101.2 23.035 100.406 23.035C99.611 23.035 98.966 22.389 98.966 21.595C98.966 20.801 99.612 20.156 100.406 20.156C101.199 20.155 101.846 20.801 101.846 21.595Z" fill="#FCDF00"/>
</g>
<circle cx="160" cy="28" r="28" fill="#1A236E"/>
<g clip-path="url(#clip3_5086_749)">
<path d="M171.954 20.5691C171.069 20.9581 170.124 21.2231 169.129 21.3441C170.143 20.7331 170.923 19.7701 171.292 18.6211C170.341 19.1761 169.287 19.5801 168.165 19.8051C167.269 18.8461 165.992 18.2461 164.574 18.2461C161.857 18.2461 159.654 20.4491 159.654 23.1631C159.654 23.5531 159.699 23.9281 159.781 24.2871C155.691 24.0941 152.066 22.1301 149.64 19.1611C149.213 19.8831 148.974 20.7221 148.974 21.6361C148.974 23.3461 149.844 24.8491 151.162 25.7321C150.355 25.7061 149.596 25.4841 148.934 25.1161V25.1771C148.934 27.5621 150.627 29.5511 152.88 30.0041C152.467 30.1151 152.031 30.1751 151.584 30.1751C151.27 30.1751 150.969 30.1451 150.668 30.0891C151.299 32.0421 153.113 33.4661 155.272 33.5061C153.592 34.8251 151.463 35.6111 149.17 35.6111C148.78 35.6111 148.391 35.5881 148 35.5441C150.189 36.9381 152.768 37.7531 155.557 37.7531C164.611 37.7531 169.556 30.2571 169.556 23.7671C169.556 23.5581 169.556 23.3471 169.541 23.1371C170.502 22.4481 171.341 21.5771 172.001 20.5891L171.954 20.5691Z" fill="#FCDF00"/>
</g>
<circle cx="226" cy="28" r="28" fill="#1A236E"/>
<path d="M237.057 35.3021H234.437C233.445 35.3021 233.139 34.5133 231.357 32.7073C229.805 31.2048 229.118 31.002 228.736 31.002C228.201 31.002 228.048 31.1552 228.048 31.893V34.2594C228.048 34.8964 227.845 35.278 226.166 35.278C223.392 35.278 220.312 33.5983 218.15 30.4671C214.892 25.8876 214 22.4514 214 21.7392C214 21.3576 214.153 21.0015 214.891 21.0015H217.511C218.172 21.0015 218.428 21.3065 218.683 22.0187C219.98 25.7598 222.143 29.0428 223.034 29.0428C223.365 29.0428 223.518 28.8895 223.518 28.0511V24.1807C223.416 22.3988 222.474 22.2471 222.474 21.6115C222.474 21.305 222.729 21 223.135 21H227.258C227.818 21 228.021 21.305 228.021 21.9661V27.1842C228.021 27.7431 228.277 27.9475 228.428 27.9475C228.759 27.9475 229.04 27.7431 229.65 27.1331C231.534 25.0206 232.882 21.7633 232.882 21.7633C233.06 21.3816 233.365 21.0255 234.028 21.0255H236.648C237.437 21.0255 237.616 21.4312 237.437 21.9916C237.107 23.5197 233.9 28.0481 233.9 28.0481C233.621 28.5064 233.519 28.7092 233.9 29.2201C234.18 29.6017 235.096 30.3905 235.708 31.1027C236.827 32.3753 237.691 33.4435 237.921 34.1827C238.176 34.919 237.793 35.3006 237.056 35.3006L237.057 35.3021Z" fill="#FCDF00"/>
</g>
<defs>
<clipPath id="clip0_5086_749">
<rect width="254" height="56" fill="white"/>
</clipPath>
<clipPath id="clip1_5086_749">
<rect width="24" height="24" fill="white" transform="translate(16 16)"/>
</clipPath>
<clipPath id="clip2_5086_749">
<rect width="24" height="24" fill="white" transform="translate(82 16)"/>
</clipPath>
<clipPath id="clip3_5086_749">
<rect width="24" height="24" fill="white" transform="translate(148 16)"/>
</clipPath>
</defs>
</svg>
