<svg width="720" height="68" viewBox="0 0 720 68" fill="none" xmlns="http://www.w3.org/2000/svg">
<g clip-path="url(#clip0_5031_885)">
<path d="M82.1425 41.92V56H72.2225V11.2H90.7825C94.4092 11.2 97.5878 11.6693 100.319 12.608C103.049 13.5467 105.311 15.2107 107.103 17.6C108.895 19.9467 109.791 22.9547 109.791 26.624C109.791 30.1653 108.852 33.1307 106.975 35.52C105.097 37.8667 102.772 39.5307 99.9985 40.512C97.2678 41.4507 94.1958 41.92 90.7825 41.92H82.1425ZM91.0385 20.48H82.1425V32.64H90.6545C96.5425 32.64 99.4865 30.6133 99.4865 26.56C99.4865 22.5067 96.6705 20.48 91.0385 20.48ZM136.095 44.224L141.663 49.856C138.121 54.2933 133.343 56.512 127.327 56.512C121.993 56.512 117.663 54.9333 114.335 51.776C111.007 48.6187 109.343 44.4587 109.343 39.296C109.343 34.048 110.921 29.8667 114.079 26.752C117.279 23.5947 121.46 22.016 126.623 22.016C131.273 22.016 135.071 23.424 138.015 26.24C141.001 29.056 142.495 32.7467 142.495 37.312C142.495 38.5067 142.324 40.2987 141.983 42.688H119.071C119.497 44.4373 120.5 45.7387 122.079 46.592C123.657 47.4453 125.449 47.872 127.455 47.872C131.209 47.872 134.089 46.656 136.095 44.224ZM126.303 30.336C122.761 30.336 120.415 31.7867 119.263 34.688H132.895C132.127 31.7867 129.929 30.336 126.303 30.336ZM155.91 56H146.63V22.72H154.822L165.19 36.032L175.686 22.72H183.302V56H174.022V38.976L165.254 49.984L155.91 38.784V56ZM187.468 39.296C187.468 34.176 189.196 30.016 192.652 26.816C196.108 23.616 200.374 22.016 205.452 22.016C210.614 22.016 214.924 23.6373 218.38 26.88C221.836 30.08 223.564 34.2187 223.564 39.296C223.564 44.416 221.814 48.576 218.316 51.776C214.817 54.9333 210.529 56.512 205.452 56.512C200.374 56.512 196.108 54.8907 192.652 51.648C189.196 48.4053 187.468 44.288 187.468 39.296ZM197.068 39.296C197.068 41.728 197.857 43.776 199.436 45.44C201.057 47.0613 203.062 47.872 205.452 47.872C208.012 47.872 210.06 47.0827 211.596 45.504C213.174 43.9253 213.964 41.856 213.964 39.296C213.964 36.7787 213.174 34.7093 211.596 33.088C210.017 31.4667 207.969 30.656 205.452 30.656C202.934 30.656 200.908 31.4667 199.372 33.088C197.836 34.7093 197.068 36.7787 197.068 39.296ZM258.989 56H249.709V43.52H236.973V56H227.693V22.72H236.973V34.88H249.709V22.72H258.989V56ZM273.459 31.36H262.131V22.72H294.195V31.36H282.739V56H273.459V31.36ZM329.211 56H312.443V22.72H326.971C328.464 22.72 329.808 22.784 331.003 22.912C332.197 22.9973 333.477 23.232 334.843 23.616C336.208 24 337.339 24.512 338.235 25.152C339.173 25.792 339.941 26.688 340.539 27.84C341.136 28.992 341.435 30.3573 341.435 31.936C341.435 32.8747 341.243 33.856 340.859 34.88C340.389 35.9467 339.557 37.0773 338.363 38.272C339.643 38.8693 340.603 39.872 341.243 41.28C341.925 42.688 342.267 44.16 342.267 45.696C342.267 49.2373 341.008 51.84 338.491 53.504C335.973 55.168 332.88 56 329.211 56ZM327.931 43.136H321.723V47.68H328.315C331.216 47.68 332.667 46.9547 332.667 45.504C332.667 44.6507 332.304 44.032 331.579 43.648C330.768 43.3067 329.552 43.136 327.931 43.136ZM326.779 31.04H321.723V35.136H328.699C330.789 35.136 331.835 34.4533 331.835 33.088C331.835 32.448 331.579 31.936 331.067 31.552C330.512 31.2107 329.083 31.04 326.779 31.04ZM371.147 43.52L377.931 47.552C376.48 50.368 374.411 52.5653 371.723 54.144C369.035 55.7227 366.091 56.512 362.891 56.512C357.6 56.512 353.269 54.9333 349.899 51.776C346.528 48.6187 344.843 44.4587 344.843 39.296C344.843 34.2187 346.507 30.08 349.835 26.88C353.205 23.6373 357.408 22.016 362.443 22.016C365.771 22.016 368.821 22.6987 371.595 24.064C374.411 25.4293 376.437 27.52 377.675 30.336L370.763 34.816C369.653 33.3653 368.523 32.32 367.371 31.68C366.219 30.9973 364.768 30.656 363.019 30.656C360.459 30.656 358.389 31.4667 356.811 33.088C355.232 34.6667 354.443 36.736 354.443 39.296C354.443 41.8133 355.381 43.8827 357.259 45.504C359.136 47.0827 361.355 47.872 363.915 47.872C366.987 47.872 369.397 46.4213 371.147 43.52ZM405.782 44.224L411.35 49.856C407.809 54.2933 403.03 56.512 397.014 56.512C391.681 56.512 387.35 54.9333 384.022 51.776C380.694 48.6187 379.03 44.4587 379.03 39.296C379.03 34.048 380.609 29.8667 383.766 26.752C386.966 23.5947 391.147 22.016 396.31 22.016C400.961 22.016 404.758 23.424 407.702 26.24C410.689 29.056 412.182 32.7467 412.182 37.312C412.182 38.5067 412.011 40.2987 411.67 42.688H388.758C389.185 44.4373 390.187 45.7387 391.766 46.592C393.345 47.4453 395.137 47.872 397.142 47.872C400.897 47.872 403.777 46.656 405.782 44.224ZM395.99 30.336C392.449 30.336 390.102 31.7867 388.95 34.688H402.582C401.814 31.7867 399.617 30.336 395.99 30.336ZM437.666 22.72H448.866L436.13 38.848L449.442 56H437.922L430.306 45.824L422.434 56H411.297L424.61 38.912L411.938 22.72H423.394L430.498 31.744L437.666 22.72ZM476.098 56H466.818V22.72H475.01L485.378 36.032L495.874 22.72H503.49V56H494.21V38.976L485.442 49.984L476.098 38.784V56ZM513.863 33.856L509.447 27.136C511.068 25.3867 513.223 24.1067 515.911 23.296C518.642 22.4427 521.372 22.016 524.103 22.016C528.412 22.016 531.762 23.232 534.151 25.664C536.54 28.096 537.735 31.488 537.735 35.84V56H528.455V52.992C527.516 54.0587 526.172 54.8907 524.423 55.488C522.716 56.0853 521.074 56.384 519.495 56.384C515.996 56.384 513.095 55.424 510.791 53.504C508.487 51.584 507.335 48.9173 507.335 45.504C507.335 42.9013 508.146 40.7467 509.767 39.04C511.388 37.3333 513.266 36.16 515.399 35.52C517.575 34.88 519.922 34.56 522.439 34.56C524.956 34.56 526.962 34.8373 528.455 35.392C528.54 33.7707 528.114 32.576 527.175 31.808C526.194 31.04 524.828 30.656 523.079 30.656C519.964 30.656 516.892 31.7227 513.863 33.856ZM521.415 48.384C522.823 48.384 524.188 48.0427 525.511 47.36C526.876 46.6773 527.858 45.76 528.455 44.608V43.072C526.962 42.5173 525.276 42.24 523.399 42.24C521.948 42.24 520.711 42.368 519.687 42.624C517.852 43.2213 516.935 44.1813 516.935 45.504C516.935 46.528 517.383 47.2747 518.279 47.744C519.218 48.1707 520.263 48.384 521.415 48.384ZM552.598 68.8H543.318V22.72H552.598V24.448C553.408 23.68 554.539 23.0827 555.99 22.656C557.44 22.2293 558.784 22.016 560.022 22.016C565.014 22.016 568.982 23.5947 571.926 26.752C574.912 29.9093 576.406 33.9413 576.406 38.848C576.406 43.9253 574.87 48.1493 571.798 51.52C568.726 54.848 564.715 56.512 559.766 56.512C555.84 56.512 553.451 55.9573 552.598 54.848V68.8ZM558.998 30.656C556.139 30.656 554.006 31.9147 552.598 34.432V45.056C553.11 45.9093 553.942 46.592 555.094 47.104C556.246 47.616 557.376 47.872 558.486 47.872C561.003 47.872 563.008 47.1253 564.502 45.632C566.038 44.096 566.806 42.0693 566.806 39.552C566.806 36.8213 566.166 34.6667 564.886 33.088C563.606 31.4667 561.643 30.656 558.998 30.656ZM578.968 39.296C578.968 34.176 580.696 30.016 584.152 26.816C587.608 23.616 591.874 22.016 596.952 22.016C602.114 22.016 606.424 23.6373 609.88 26.88C613.336 30.08 615.064 34.2187 615.064 39.296C615.064 44.416 613.314 48.576 609.816 51.776C606.317 54.9333 602.029 56.512 596.952 56.512C591.874 56.512 587.608 54.8907 584.152 51.648C580.696 48.4053 578.968 44.288 578.968 39.296ZM588.568 39.296C588.568 41.728 589.357 43.776 590.936 45.44C592.557 47.0613 594.562 47.872 596.952 47.872C599.512 47.872 601.56 47.0827 603.096 45.504C604.674 43.9253 605.464 41.856 605.464 39.296C605.464 36.7787 604.674 34.7093 603.096 33.088C601.517 31.4667 599.469 30.656 596.952 30.656C594.434 30.656 592.408 31.4667 590.872 33.088C589.336 34.7093 588.568 36.7787 588.568 39.296ZM628.473 56H619.193V22.72H628.473V34.624L640.249 22.72H652.281L637.177 37.504L652.601 56H640.825L630.521 43.392L628.473 45.504V56Z" fill="#1A236E"/>
</g>
<defs>
<clipPath id="clip0_5031_885">
<rect width="720" height="68" fill="white"/>
</clipPath>
</defs>
</svg>
